<svg width="50" height="50" viewBox="0 0 50 50" fill="none" xmlns="http://www.w3.org/2000/svg">
<circle cx="25" cy="25" r="25" fill="#D9D9D9"/>
<rect x="11" y="11" width="28" height="28" rx="6" fill="url(#paint0_radial_7_97)"/>
<rect x="11" y="11" width="28" height="28" rx="6" fill="url(#paint1_radial_7_97)"/>
<rect x="11" y="11" width="28" height="28" rx="6" fill="url(#paint2_linear_7_97)"/>
<path d="M32 19.5C32 20.3284 31.3284 21 30.5 21C29.6716 21 29 20.3284 29 19.5C29 18.6716 29.6716 18 30.5 18C31.3284 18 32 18.6716 32 19.5Z" fill="white"/>
<path fill-rule="evenodd" clip-rule="evenodd" d="M25 30C27.7614 30 30 27.7614 30 25C30 22.2386 27.7614 20 25 20C22.2386 20 20 22.2386 20 25C20 27.7614 22.2386 30 25 30ZM25 28C26.6569 28 28 26.6569 28 25C28 23.3431 26.6569 22 25 22C23.3431 22 22 23.3431 22 25C22 26.6569 23.3431 28 25 28Z" fill="white"/>
<path fill-rule="evenodd" clip-rule="evenodd" d="M15 24.6C15 21.2397 15 19.5595 15.654 18.2761C16.2292 17.1471 17.1471 16.2292 18.2761 15.654C19.5595 15 21.2397 15 24.6 15H25.4C28.7603 15 30.4405 15 31.7239 15.654C32.8529 16.2292 33.7708 17.1471 34.346 18.2761C35 19.5595 35 21.2397 35 24.6V25.4C35 28.7603 35 30.4405 34.346 31.7239C33.7708 32.8529 32.8529 33.7708 31.7239 34.346C30.4405 35 28.7603 35 25.4 35H24.6C21.2397 35 19.5595 35 18.2761 34.346C17.1471 33.7708 16.2292 32.8529 15.654 31.7239C15 30.4405 15 28.7603 15 25.4V24.6ZM24.6 17H25.4C27.1132 17 28.2777 17.0016 29.1779 17.0751C30.0548 17.1467 30.5032 17.2766 30.816 17.436C31.5686 17.8195 32.1805 18.4314 32.564 19.184C32.7234 19.4968 32.8533 19.9452 32.9249 20.8221C32.9984 21.7223 33 22.8868 33 24.6V25.4C33 27.1132 32.9984 28.2777 32.9249 29.1779C32.8533 30.0548 32.7234 30.5032 32.564 30.816C32.1805 31.5686 31.5686 32.1805 30.816 32.564C30.5032 32.7234 30.0548 32.8533 29.1779 32.9249C28.2777 32.9984 27.1132 33 25.4 33H24.6C22.8868 33 21.7223 32.9984 20.8221 32.9249C19.9452 32.8533 19.4968 32.7234 19.184 32.564C18.4314 32.1805 17.8195 31.5686 17.436 30.816C17.2766 30.5032 17.1467 30.0548 17.0751 29.1779C17.0016 28.2777 17 27.1132 17 25.4V24.6C17 22.8868 17.0016 21.7223 17.0751 20.8221C17.1467 19.9452 17.2766 19.4968 17.436 19.184C17.8195 18.4314 18.4314 17.8195 19.184 17.436C19.4968 17.2766 19.9452 17.1467 20.8221 17.0751C21.7223 17.0016 22.8868 17 24.6 17Z" fill="white"/>
<defs>
<radialGradient id="paint0_radial_7_97" cx="0" cy="0" r="1" gradientUnits="userSpaceOnUse" gradientTransform="translate(21 32) rotate(-55.3758) scale(25.5196)">
<stop stop-color="#B13589"/>
<stop offset="0.79309" stop-color="#C62F94"/>
<stop offset="1" stop-color="#8A3AC8"/>
</radialGradient>
<radialGradient id="paint1_radial_7_97" cx="0" cy="0" r="1" gradientUnits="userSpaceOnUse" gradientTransform="translate(20 40) rotate(-65.1363) scale(22.5942)">
<stop stop-color="#E0E8B7"/>
<stop offset="0.444662" stop-color="#FB8A2E"/>
<stop offset="0.71474" stop-color="#E2425C"/>
<stop offset="1" stop-color="#E2425C" stop-opacity="0"/>
</radialGradient>
<linearGradient id="paint2_linear_7_97" x1="-29" y1="17.5" x2="48" y2="6.5" gradientUnits="userSpaceOnUse">
<stop offset="0.9999" stop-color="#A7A7A7"/>
<stop offset="1" stop-color="#6A45BE" stop-opacity="0"/>
</linearGradient>
</defs>
</svg>
