<svg width="50" height="50" viewBox="0 0 50 50" fill="none" xmlns="http://www.w3.org/2000/svg">
<circle cx="25" cy="25" r="25" fill="#D9D9D9"/>
<path d="M11.2445 18.9411C11.373 16.9623 12.9639 15.4116 14.9445 15.3134C17.8124 15.1714 21.9115 15 25 15C28.0885 15 32.1876 15.1714 35.0555 15.3134C37.0361 15.4116 38.627 16.9623 38.7555 18.9411C38.8786 20.8369 39 23.1697 39 25C39 26.8303 38.8786 29.1631 38.7555 31.0589C38.627 33.0377 37.0361 34.5884 35.0555 34.6866C32.1876 34.8286 28.0885 35 25 35C21.9115 35 17.8124 34.8286 14.9445 34.6866C12.9639 34.5884 11.373 33.0377 11.2445 31.0589C11.1214 29.1631 11 26.8303 11 25C11 23.1697 11.1214 20.8369 11.2445 18.9411Z" fill="#A7A7A7"/>
<path d="M22 21V29L30 25L22 21Z" fill="white"/>
</svg>
